<?xml version="1.0" encoding="UTF-8" standalone="no"?>
<svg
   fill="none"
   viewBox="102.28 102.2 885.98297 226.3444"
   version="1.1"
   id="svg1"
   xml:space="preserve"
   width="885.98297"
   height="226.34441"
   xmlns="http://www.w3.org/2000/svg"
   xmlns:svg="http://www.w3.org/2000/svg"><defs
     id="defs1" /><path
     fill="#0766ff"
     d="m 881.574,257.884 h 29.48 v -47.696 l 41.137,47.696 h 36.072 l -47.89,-54.969 40.909,-47.663 h -32.825 l -37.403,43.93 V 102.2 l -29.48,3.864 z M 813.586,152.623 c -32.728,0 -55.455,22.013 -55.455,53.929 0,31.916 22.727,53.929 55.455,53.929 32.727,0 55.455,-22.013 55.455,-53.929 0,-31.916 -22.728,-53.929 -55.455,-53.929 z m 0,82.728 c -15.163,0 -25.552,-11.721 -25.552,-28.799 0,-17.078 10.389,-28.799 25.552,-28.799 15.162,0 25.552,11.721 25.552,28.799 0,17.078 -10.39,28.799 -25.552,28.799 z M 693.779,152.623 c -32.727,0 -55.455,22.013 -55.455,53.929 0,31.916 22.728,53.929 55.455,53.929 32.728,0 55.455,-22.013 55.455,-53.929 0,-31.916 -22.727,-53.929 -55.455,-53.929 z m 0,82.728 c -15.162,0 -25.552,-11.721 -25.552,-28.799 0,-17.078 10.39,-28.799 25.552,-28.799 15.163,0 25.552,11.721 25.552,28.799 0,17.078 -10.389,28.799 -25.552,28.799 z M 580.953,152.623 c -13.636,0 -24.935,5.357 -32.013,15.162 V 102.2 l -29.513,3.831 v 151.82 h 26.169 l 0.519,-15.844 c 6.981,11.818 19.481,18.474 34.838,18.474 27.988,0 48.475,-22.728 48.475,-53.929 0,-31.202 -20.39,-53.929 -48.475,-53.929 z m -6.98,82.728 c -15.163,0 -25.552,-11.721 -25.552,-28.799 0,-17.078 10.389,-28.799 25.552,-28.799 15.162,0 25.552,11.721 25.552,28.799 0,17.078 -10.39,28.799 -25.552,28.799 z m -113.638,1.331 c -15.649,0 -26.883,-7.273 -30.714,-19.805 h 72.63 c 0.715,-3.831 1.202,-8.377 1.202,-11.429 0,-33.02 -18.475,-52.825 -49.514,-52.825 -31.331,0 -53.02,22.013 -53.02,53.929 0,32.338 22.728,53.929 56.462,53.929 17.467,0 34.448,-5.844 45.065,-15.552 l -10.617,-18.701 c -10.292,7.11 -20.39,10.454 -31.494,10.454 z m -6.591,-61.137 c 13.637,0 22.338,8.279 22.338,21.104 v 0.098 h -47.078 c 2.825,-13.604 11.623,-21.202 24.74,-21.202 z m -98.994,84.96801 c 15.26,0 30.195,-5.84401 40.714,-15.97401 l -11.526,-19.383 c -8.182,6.364 -17.467,9.805 -26.266,9.805 -16.364,0 -27.273,-11.429 -27.273,-28.377 0,-16.948 10.909,-28.377 27.273,-28.377 8.084,0 16.883,2.922 24.026,8.085 l 11.721,-19.806 c -9.481,-8.571 -24.156,-13.831 -38.702,-13.831 -32.013,0 -54.643,22.338 -54.643,53.929 0.032,31.494 22.662,53.92901 54.676,53.92901 z M 261.015,155.252 l -0.519,15.975 c -6.981,-11.916 -19.481,-18.572 -34.838,-18.572 -28.085,0 -48.475,22.728 -48.475,53.929 0,31.202 20.52,53.92901 48.475,53.92901 15.357,0 27.889,-6.65601 34.838,-18.47401 l 0.519,15.844 h 26.169 V 155.252 Z m -28.377,80.09901 c -15.162,0 -25.552,-11.72101 -25.552,-28.79901 0,-17.078 10.39,-28.799 25.552,-28.799 15.163,0 25.552,11.721 25.552,28.799 0,17.078 -10.422,28.79901 -25.552,28.79901 z M 174.975,155.445 h -26.526 v -8.767 c 0,-13.117 5.13,-18.149 18.442,-18.149 4.123,0 7.467,0.097 9.383,0.292 v -22.5 c -3.637,-1.007 -12.5,-2.013 -17.63,-2.013 -27.111,0 -39.611,12.792 -39.611,40.422 v 10.682 H 102.28 v 24.806 h 16.753 v 77.63101 h 29.448 V 180.25 h 21.949 z"
     id="path1" /></svg>
