<?xml version="1.0" encoding="UTF-8" standalone="no"?>
<svg
   fill="none"
   viewBox="102.28 102.2 885.98297 226.3444"
   version="1.1"
   id="svg1"
   xml:space="preserve"
   width="885.98297"
   height="226.34441"
   xmlns="http://www.w3.org/2000/svg"
   xmlns:svg="http://www.w3.org/2000/svg">  
  <defs>
     <linearGradient id="gradient" x1="0%" y1="0%" x2="100%" y2="0%">
      <stop offset="0%" style="stop-color:#fcc715;stop-opacity:1" />
      <stop offset="100%" style="stop-color:#be00ac;stop-opacity:1" />
    </linearGradient>
  </defs>
  <path
     style="fill:url(#gradient);stroke-width:1.02905"
     d="m 146.11714,104.30308 c -16.68113,6.98248 -35.01923,26.70887 -40.81101,51.46975 -7.334827,31.37301 23.18882,44.63967 25.69238,40.28969 2.94667,-5.11127 -5.46948,-6.83976 -7.20188,-23.11749 -2.23899,-21.02412 7.53508,-44.51619 19.83609,-54.82383 2.28653,-1.91505 2.17776,0.75038 2.17776,5.68064 0,8.81645 -0.48715,87.96227 -0.48715,104.4801 0,22.35065 -0.92315,29.40856 -2.58115,36.38271 -1.67992,7.06759 -4.38065,11.84308 -2.33418,13.6826 2.28643,2.05768 12.04869,-2.83677 17.70019,-10.7245 6.77699,-9.46012 9.14924,-20.82119 9.57516,-33.15913 0.51442,-14.873 0.49251,-38.47334 0.51442,-51.9348 0.0206,-12.34617 0.20797,-48.49847 -0.2164,-70.23191 -0.10404,-5.33076 -14.88813,-10.92352 -21.86505,-8.00031 m 592.34651,104.60594 c -0.53778,11.61957 -3.10987,20.70182 -6.30208,27.10804 -6.17993,12.40205 -19.00347,16.25305 -24.44816,-1.57537 -2.96714,-9.7183 -3.10575,-25.94881 -0.97255,-39.5104 2.17151,-13.81545 8.23484,-24.24925 18.27502,-23.30829 9.90303,0.93015 14.53835,13.69062 13.44777,37.28551 z m -166.94766,72.09069 c -0.1344,19.30664 -3.17296,36.23454 -9.68898,41.15111 -9.24175,6.97147 -21.66335,1.74207 -19.09126,-12.34618 2.27584,-12.46677 13.03893,-25.19853 28.80637,-40.75471 0,0 0.0329,3.54753 -0.0257,11.94978 z m -2.52405,-72.20316 c -0.56515,10.58311 -3.30878,21.2148 -6.30208,27.22195 -6.17859,12.40195 -19.09537,16.27908 -24.44815,-1.57537 -3.65991,-12.19891 -2.78336,-27.98745 -0.97256,-37.93565 2.34984,-12.90732 8.04559,-24.8817 18.27502,-24.8817 9.94552,0 14.84974,10.91127 13.44777,37.17159 z m -96.71304,-0.16187 c -0.60633,11.20857 -2.79293,20.57833 -6.30198,27.38382 -6.3487,12.31664 -18.90882,16.2228 -24.44816,-1.57537 -3.99332,-12.83384 -2.63385,-30.33317 -0.97266,-39.78629 2.46518,-14.02794 8.63823,-23.97346 18.27512,-23.03106 9.89891,0.9671 14.71113,13.68918 13.44768,37.00972 z m 443.21369,13.09213 c -2.41992,0 -3.52417,2.49431 -4.43777,6.69291 -3.16883,14.59865 -6.49955,17.895 -10.79468,17.895 -4.79855,0 -9.11013,-7.22864 -10.21853,-21.69907 -0.87107,-11.37836 -0.73113,-32.32633 0.38281,-53.16399 0.22762,-4.28134 -0.9534,-8.5174 -12.43673,-12.68905 -4.94126,-1.79435 -12.124,-4.43642 -15.70024,4.19635 -10.10461,24.38909 -14.05821,43.75202 -14.98826,51.61794 -0.0484,0.40709 -0.54735,0.49024 -0.63512,-0.46091 -0.59262,-6.30002 -1.91772,-17.74836 -2.08237,-41.80137 -0.0319,-4.69296 -1.02606,-8.68761 -6.20598,-11.95802 -3.36096,-2.1221 -13.56714,-5.87533 -17.24217,-1.4102 -3.18395,3.65177 -6.87134,13.47926 -10.70278,25.12856 -3.11389,9.46814 -5.28271,15.87313 -5.28271,15.87313 0,0 0.0412,-25.54698 0.0782,-35.23739 0.0165,-3.65579 -2.49122,-4.87397 -3.24705,-5.09481 -3.40347,-0.98778 -10.10883,-2.63795 -12.95527,-2.63795 -3.51183,0 -4.37191,1.963 -4.37191,4.82324 0,0.37446 -0.55424,33.63506 -0.55424,56.89242 0,1.01021 0,2.11242 0.0103,3.28327 -1.94242,10.68931 -8.24172,25.19988 -15.09249,25.19988 -6.859,0 -10.09504,-6.06643 -10.09504,-33.79282 0,-16.17485 0.4856,-23.20807 0.72434,-34.90667 0.13851,-6.73829 0.40607,-11.91273 0.39094,-13.08698 -0.0504,-3.60094 -6.27728,-5.41587 -9.17456,-6.0866 -2.91095,-0.67639 -5.44056,-0.93838 -7.41592,-0.8259 -2.79571,0.15774 -4.77384,1.99191 -4.77384,4.51462 0,1.35258 0.0154,3.92467 0.0154,3.92467 -3.60094,-5.65861 -9.3926,-9.59708 -13.24608,-10.73839 -10.37895,-3.08239 -21.20934,-0.35122 -29.37831,11.08004 -6.49277,9.08266 -10.40643,19.36972 -11.947,34.14948 -1.1262,10.80509 -0.75862,21.76217 1.24287,31.02861 -2.41847,10.45612 -6.9084,14.73994 -11.82487,14.73994 -7.13745,0 -12.3119,-11.65003 -11.71104,-31.79821 0.39638,-13.25227 3.04814,-22.55237 5.94675,-36.00693 1.23598,-5.73549 0.23185,-8.73835 -2.28684,-11.61638 -2.31011,-2.63929 -7.23204,-3.98775 -14.30786,-2.32924 -5.03994,1.18247 -12.24593,2.45406 -18.83882,3.43083 0,0 0.39783,-1.5872 0.72433,-4.38558 1.71471,-14.67551 -14.23241,-13.48481 -19.32042,-8.79741 -3.03712,2.79849 -5.10448,6.09905 -5.88913,12.03345 -1.24421,9.41741 6.43648,13.85928 6.43648,13.85928 -2.52003,11.53539 -8.69719,26.60454 -15.07468,37.49935 -3.41572,5.83715 -6.02897,10.16254 -9.4023,14.76052 -0.0123,-1.71213 -0.0216,-3.42405 -0.0278,-5.12815 -0.0772,-24.25203 0.24553,-43.33917 0.38815,-50.21875 0.13862,-6.73819 0.40884,-11.77547 0.39373,-12.94971 -0.0381,-2.63384 -1.57619,-3.62842 -4.77519,-4.88776 -2.82863,-1.11384 -6.17314,-1.8848 -9.64236,-2.15369 -4.37879,-0.34153 -7.01675,1.98091 -6.94822,4.72723 0.0134,0.51853 0.0134,3.7025 0.0134,3.7025 -3.60105,-5.65872 -9.39272,-9.59708 -13.24609,-10.7385 -10.37905,-3.08105 -21.20934,-0.34977 -29.37842,11.08004 -6.49132,9.08266 -10.74251,21.82801 -11.947,34.03701 -1.12208,11.37889 -0.91493,21.04882 0.61464,29.19454 -1.65028,8.15683 -6.3953,16.68659 -11.76043,16.68659 -6.859,0 -10.76175,-6.06653 -10.76175,-33.79282 0,-16.17485 0.48561,-23.20807 0.72434,-34.90543 0.13852,-6.73819 0.40606,-11.91398 0.39094,-13.08688 -0.0504,-3.60094 -6.27739,-5.41587 -9.17456,-6.08804 -3.03166,-0.70099 -5.64905,-0.95887 -7.65877,-0.81079 -2.65165,0.19758 -4.51597,2.57221 -4.51597,4.34319 v 4.08109 c -3.60094,-5.65872 -9.39261,-9.59708 -13.24606,-10.7385 -10.37895,-3.08105 -21.14895,-0.30583 -29.37833,11.08004 -5.36647,7.42415 -9.71099,15.65497 -11.94701,33.87514 -0.64614,5.26533 -0.93149,10.1959 -0.89444,14.80448 -2.14,13.08729 -11.59169,28.17114 -19.3231,28.17114 -4.52421,0 -8.83302,-8.77519 -8.83302,-27.47705 0,-24.91186 1.54192,-60.38099 1.80258,-63.79947 0,0 9.76852,-0.16599 11.66031,-0.18801 4.87253,-0.0535 9.28569,0.0618 15.77557,-0.27022 3.25529,-0.16599 6.3912,-11.84823 3.03167,-13.29403 -1.52267,-0.65437 -12.28442,-1.22776 -16.55063,-1.31831 -3.58727,-0.0813 -13.57394,-0.82036 -13.57394,-0.82036 0,0 0.89578,-23.5428 1.10426,-26.0298 0.177,-2.07281 -2.50489,-3.14003 -4.0427,-3.78761 -3.73945,-1.58164 -7.08529,-2.33891 -11.05113,-3.15649 -5.47904,-1.1303 -7.9647,-0.0247 -8.45031,4.59963 -0.73114,7.01819 -1.10982,27.5745 -1.10982,27.5745 -4.02068,0 -17.75515,-0.78599 -21.77717,-0.78599 -3.73678,0 -7.76991,16.0706 -2.60369,16.26808 5.94397,0.2305 16.30244,0.42942 23.16957,0.63656 0,0 -0.30584,36.05352 -0.30584,47.18429 0,1.18422 0.0103,2.32461 0.0124,3.43115 -3.77937,19.69902 -17.0912,30.33996 -17.0912,30.33996 2.85879,-13.03203 -2.98094,-22.81846 -13.49984,-31.10269 -3.87538,-3.05277 -11.52593,-8.83209 -20.08594,-15.16525 0,0 4.95774,-4.88632 9.35433,-14.71658 3.11534,-6.96324 3.24983,-14.93206 -4.39659,-16.68926 -12.63431,-2.9055 -23.05164,6.37329 -26.15885,16.27908 -2.40745,7.6738 -1.1234,13.36812 3.59281,19.28328 0.34432,0.4322 0.71745,0.87387 1.10293,1.31831 -2.852,5.49706 -6.76988,12.89795 -10.08824,18.63725 -9.21027,15.93478 -16.16795,28.53883 -21.42606,28.53883 -4.20324,0 -4.14695,-12.79639 -4.14695,-24.77736 0,-10.32864 0.76273,-25.85703 1.37182,-41.93442 0.20159,-5.31708 -2.45695,-8.34607 -6.91385,-11.08961 -2.70793,-1.66675 -8.48736,-4.94395 -11.83453,-4.94395 -5.01001,0 -19.46439,0.68175 -33.12198,40.18814 -1.72118,4.97944 -5.10252,14.05265 -5.10252,14.05265 l 0.29101,-47.50805 c 0,-1.11384 -0.59324,-2.19074 -1.95158,-2.92743 -2.30146,-1.24967 -8.44836,-3.80531 -13.91414,-3.80531 -2.6042,0 -3.90378,1.21129 -3.90378,3.62564 l -0.47676,74.32671 c 0,5.6474 0.14726,12.23566 0.70562,15.11719 0.5563,2.88513 1.45754,5.23218 2.57374,6.62859 1.11456,1.39374 2.40385,2.45695 4.52955,2.89574 1.97844,0.40729 12.81192,1.79846 13.37502,-2.34159 0.67465,-4.96155 0.70047,-10.32811 6.38913,-30.34284 8.85607,-31.16033 20.40278,-46.36396 25.83089,-51.76336 0.94909,-0.94373 2.03278,-1.00002 1.9806,0.54458 -0.23174,6.83162 -1.04664,23.90225 -1.59522,38.4049 -1.47041,38.81085 5.58998,46.0045 15.67966,46.0045 7.71908,0 18.6002,-7.66979 30.26453,-27.08468 7.27196,-12.0991 14.33254,-23.96255 19.40544,-32.513 3.53517,3.27257 7.50234,6.79479 11.46684,10.5575 9.21294,8.74411 12.23782,17.05282 10.23088,24.9351 -1.53502,6.02578 -7.3158,12.23576 -17.60429,6.19989 -2.99874,-1.7609 -4.27867,-3.1214 -7.29388,-5.10663 -1.62002,-1.06651 -4.09343,-1.3853 -5.57629,-0.26807 -3.85202,2.90438 -6.05511,6.59855 -7.313,11.17214 -1.22365,4.45031 3.23325,6.80281 7.85346,8.86049 3.97818,1.77099 12.52862,3.37578 17.98154,3.55854 21.24638,0.71056 38.26627,-10.25845 50.11439,-38.55297 2.12086,24.43581 11.14724,38.2635 26.82968,38.2635 10.48463,0 20.99664,-13.55232 25.59359,-26.88442 1.31965,5.43459 3.27308,10.16048 5.79579,14.15688 12.08419,19.14621 35.52677,15.0253 47.30233,-1.2329 3.64077,-5.02369 4.1949,-6.82895 4.1949,-6.82895 1.71748,15.35171 14.08012,20.71551 21.15861,20.71551 7.92766,0 16.11309,-3.74779 21.84992,-16.66323 0.67228,1.40166 1.40608,2.74024 2.2073,4.00916 12.08407,19.14621 35.52675,15.02529 47.30223,-1.2329 0.55557,-0.76263 1.03706,-1.45445 1.45825,-2.07538 l 0.34567,10.08372 c 0,0 -6.71771,6.16244 -10.84131,9.94284 -18.14886,16.65088 -31.94908,29.28375 -32.96423,43.99487 -1.30319,18.75795 13.91001,25.72943 25.41937,26.64301 12.22269,0.96998 22.68952,-5.78189 29.12322,-15.2311 5.65861,-8.31705 9.36257,-26.21771 9.0909,-43.89742 -0.10837,-7.07973 -0.2867,-16.08161 -0.42665,-25.73077 6.37884,-7.40768 13.56569,-16.77024 20.18328,-27.72947 7.21156,-11.9432 14.94019,-27.98191 18.8978,-40.46392 0,0 6.71504,0.0576 13.88121,-0.41152 2.29229,-0.14952 2.95078,0.31818 2.52691,1.99872 -0.51173,2.0302 -9.05385,34.97808 -1.25801,56.9268 5.33632,15.02528 17.36566,19.85943 24.49756,19.85943 8.34874,0 16.33537,-6.30486 20.61538,-15.66721 0.51575,1.04376 1.05487,2.05377 1.64338,2.98618 12.08419,19.14621 35.44455,15.0006 47.30233,-1.2329 2.67635,-3.66257 4.1949,-6.82895 4.1949,-6.82895 2.54473,15.88815 14.90047,20.7964 21.97753,20.7964 7.37208,0 14.36825,-3.0222 20.04478,-16.45331 0.23729,5.91372 0.61043,10.7493 1.20028,12.27383 0.35943,0.93232 2.45417,2.10275 3.97818,2.66801 6.74375,2.50079 13.622,1.31821 16.16662,0.80379 1.76276,-0.35677 3.13734,-1.77099 3.32525,-5.42287 0.49385,-9.58874 0.19068,-25.69927 3.09754,-37.67231 4.87951,-20.09408 9.43109,-27.88858 11.59033,-31.7474 1.20851,-2.16202 2.5721,-2.51869 2.62149,-0.2305 0.10188,4.62978 0.33197,18.22573 2.22233,36.49252 1.38818,13.4346 3.24293,21.37533 4.66816,23.88847 4.0674,7.18686 9.09089,7.52715 13.18167,7.52715 2.60225,0 8.04415,-0.71909 7.5572,-5.29258 -0.23731,-2.22921 0.17833,-16.00618 4.98922,-35.80254 3.14137,-12.9277 8.37889,-24.60869 10.26791,-28.87904 0.69687,-1.57485 1.02062,-0.33341 1.0096,-0.0916 -0.39783,8.90299 -1.29083,38.02354 2.33614,53.95007 4.91657,21.57558 19.13931,23.98993 24.0956,23.98993 10.58065,0 19.23399,-8.04858 22.14907,-29.22612 0.70232,-5.09645 -0.33752,-9.03172 -3.45285,-9.03172"
     id="path1-5" /></svg>
