<svg xmlns="http://www.w3.org/2000/svg" viewBox="0 0 32 32">
  <defs>
    <clipPath id="a" clipPathUnits="userSpaceOnUse">
      <path d="M0 3000h3000V0H0Z" transform="translate(-1201.8 -1859.8)"/>
    </clipPath>
  </defs>
  <path d="m0 0 14-9.2-1.4-1.9C7.3-8.8 2.6-5.6.2.2L0 0m-25.6-307.3c3 .4 6 1.5 8.7 1 9.7-2.3 19.2-5.1 28.3-9.4l-37 8.4m221.7-334.6c2-1.3 5.2-2 6-3.8 3.7-7.6 6.7-15.5 10.3-24.2a68 68 0 0 0-16 28.3l-.3-.3M594-674.2c-9.6 18.6-19.1 37.3-28.9 55.8-10.8 20.5-22 40.9-33 61.4l-29 54.6c-9 16.7-17.5 33.6-26.8 50.1a2189.013 2189.013 0 0 1-34.8 59.3c-5 8.2-11.2 15.4-16.7 23.3-8.4 12.2-13.5 25-8.7 40.3 1.3 4.2 3.2 6.1 7.7 5.8 10-.6 19-2.4 21.8-14.2 10.3-10.2 10.8-24.6 15.5-37.1 13-35 28.2-69 43.5-102.8 6.8-15.2 13.4-30.4 20.7-45.4 8-16.4 17.2-32.3 24.9-48.8 10.3-22.4 19.7-45.2 29.6-67.7 4-9.1 8.3-18.1 12.3-27.2 1-2.4 1.1-5 1.6-7.6l.3.2M408.6-344.6l-11.4-25c-15.8-34.9-31.4-69.8-47.3-104.6-12.1-26.6-25.1-52.7-36.7-79.5-10.7-25-19.7-50.6-30-75.8-7.4-18-15.4-36-24-53.6-2.7-5.7-6.5-11.6-13.4-13.9-.3 0-.6-.2-.8-.4-3.1-3.4-5.6-8.3-11.2-6.6-5.5 1.6-10.8 4.1-15.5 6 0 6.3-1.1 11.5.3 15.9a67.4 67.4 0 0 0 8.7 16.5c11.6 17.3 23.8 34.4 35.4 51.7 13 19.4 22.1 40.9 31.8 62 11.5 25 22.9 50.1 37 73.9 14.7 24.6 27.1 50.4 40.8 75.5 10.1 18.7 20.6 37.2 31 55.7l2.5 4.4 2.8-2.2m185.1-329.8c3-.7 6.3-2.3 9.2-1.8a144 144 0 0 0 40.4 1c27.1-3 54.3-5.6 81.4-8.3 12.2-1.2 24.4-2.5 36.7-3.4 6.6-.5 13.3-.3 20-.6 52.4-2.8 105-5.2 157.6-5.2 42.2 0 84.5-.8 126.8-1.8 24-.6 47.8-2.2 73.1-3.5-3.4-4-6.7-3-9.5-3-16-.1-32 .2-48 0-28.2-.5-56.5-1-84.7-1.9-46-1.3-91.8-3.4-137.7-1.5-26 1.1-52-.4-77.9-.7-11.6 0-23.3.3-34.9 0-6.9-.1-13.7-1-20.6-1.5-14.5-.9-29-2.4-43.6-2.5-18.5 0-37 1.2-55.5 1.9-4 .1-8 .4-11.9.8-3.6.5-7.3.8-10.7 1.9-8.3 2.5-10.2 5.5-8.3 14 1.3 5.8 1.5 11.1-1.6 16.3zm-397.3 32.8c-1.8 2-4 3.7-5 6-6.8 13.7-13 27.6-19.7 41.3L142-534.4l-16.6 34c-8.4 17-16.5 34.1-25.2 51C89.3-428.5 78-407.8 66.7-387c-4.4 8.1-9.2 16-13.8 24.1-2.7 4.7-4.8 9.2-3.5 15 .8 3.7-.6 7.7-1.2 13.4-7.6-7-14.2-12.8-20.6-18.8-30.4-28.4-61-56.6-91.2-85.3-26.3-25-52-50.6-78-76-9.3-9-19.3-17.6-27.6-27.4-16.7-20-37.2-36-55-54.8l-44-46.1c-36-37.8-72.2-75.4-107.8-113.5-17.5-18.8-34-38.5-50.6-58-14.1-16.6-27.4-34-42.1-50-9-9.8-19.9-17.6-29.9-26.3l-6.6-6c-2.8-2.6-5.7-4.6-10.2-2-.2.9-.9 2.4-.5 3.3 3.2 7.3 6 14.7 10 21.5 3.6 6 8.1 11.3 12.6 16.5 9.6 11.4 19.2 22.8 29.2 33.8a3307.998 3307.998 0 0 0 54 58.5 1076.998 1076.998 0 0 0 43.2 44c19.3 18.3 39.6 35.6 59.2 53.5 33.39 30.595 66.59 61.396 99.6 92.4 11.4 10.7 21.5 22.6 32.4 33.7 10.2 10.5 20.6 20.8 30.8 31.2 26.4 26.8 52.3 54.2 79.2 80.5C-34.4-399.3-2-370.2 32.2-343c6 4.7 12.3 9 18.7 13.3 4.9 3.2 15.9 1.6 20.5-2.8A32.2 32.2 0 0 0 82-351.3c3-22.7 12-43 21.3-63.7 16-35.8 30.2-72.5 45.2-108.7 8.4-20.3 17.4-40.2 25.1-60.7 3-8.2 7.5-15.5 11.1-23.3 3.7-7.8 7.5-15.5 11-23.5 1.3-3.3 5-7 .4-10.7zm-222 334.3L-76.3-293c-11 3-21.8 6.2-32.8 9-4.1 1-8.6.3-12.8 1.1-16.2 3.4-32.5 6.8-48.6 10.7-4.7 1.1-9 3.8-13.5 5.8-1 .4-1.9 1.3-2.7 1.2-17.3-2.2-32.4 6-48.3 10-20.2 5.2-40.2 11.7-62.5 13.2-.4-3.5-1-6.9-1-10.3l-.9-58.8c0-11.9.2-23.8-.1-35.7-.5-19.6-1.6-39.1-2-58.7-.2-15.3-3.7-30.2-2.7-45.6.9-14.5-1.7-29.2-2.1-43.8-.6-23.2 0-46.5 1.2-69.7 1.5-24.6 3-49.2-2.3-73.6-.3-1.6-.6-3.3-1.1-4.8-.3-1-1-1.7-1.5-2.7-3.1 6.6-3.1 6.6-3.2 16.4-.2 24.3.2 48.6-.8 73-1.1 28.5-3.5 57-5 85.7-2 36.5-8.3 72.9-6.1 109.6 2 34.2 4.7 68.4 7 102.6.3 5.3 0 10.5 0 17.2-11.7-4-22-10.4-34.7-10.5 4 3.4 7.7 7 12 10 5.1 3.6 10.6 6.8 16 10.1 8.2 5 11.6 11.9 10.4 21.8a501.5 501.5 0 0 0-5.1 86.6c.8 15.3 2 30.6 3.3 45.8 1.6 17 0 33.8-1.8 50.7a985.695 985.695 0 0 0-4.4 68.7c-.8 18.6-.3 37.3-.7 55.9-.8 35.6-.8 71.1 3 106.6.8 8 1.3 16 3.5 23.7 2.9 10.2-1.4 16.3-9.2 21.7-20.1 14.1-40 28.8-60.3 42.5-18.1 12.2-36.8 23.4-55.3 35-17.2 10.8-34.5 21.3-51.5 32.3-8.9 5.7-12.8 21-8.2 31 .9 2 3.8 4.1 5.8 4.1 12.6 0 23.8-3.1 33.7-12 17-15.5 34.7-30 52.1-45 23.8-20.3 47.4-40.9 71.3-61 9.1-7.6 19.3-14 28.5-21.5 5.8-4.7 10.7-10.8 16.3-15.8 44.4-38.8 90.1-76 137.4-111.2 27-20.1 54.2-39.9 80.4-60.9C-51 47.6-27.3 26.5-3.4 5.8-1.8 4.4-1 2 0 0l.2.2c-3.3 2-7 3.7-10 6.2C-37.7 29-65 52.3-93.3 74.4c-21.1 16.7-43.6 31.7-65 48-33.8 25.4-67 51.4-100.7 77-13.1 10-26.7 19.5-40.1 29.2-1 .8-2.3 1-4.9 2.2 0-3.8-.2-6.7 0-9.5 2.3-23 5.4-46.1 6.7-69.2 1-17.2.7-34.6-1-51.6-1-10.3-1.2-20.7-3.8-31-2.6-9.9-2.6-20.4-3.8-30.6-1.2-10.6-3.1-21.1-3.7-31.7-1.5-28.9-2-57.6 2-86.5 2.4-18 2.2-36.4 3.1-54.6.6-11.5 1.3-23 1.3-34.5 0-12-.7-23.9-1-35.8 0-1.7-.4-3.4-.2-5 .3-2.5.6-6.7 1.8-7 2.3-.7 5.6.2 8 1.4 26.2 13 52.3 26 78.3 39.3 21 10.8 41.7 22 62.4 33.4 13.6 7.5 27 15.6 40.3 23.6 5 3.1 9.4 7.3 14.4 10.4 7.6 4.6 15.7 8.5 23.3 13.2 3.7 2.2 6.5 5.8 10.2 8 6 3.4 12.4 6.2 18.7 9.3 1.2.6 2.8.6 3.7 1.4 9.2 8 21 11.1 31.4 16.8A184.9 184.9 0 0 0 51-38c1.5.2 3.2-.1 4.5-.2 2.8-4.6-.6-7-2.8-8.9-7-6-14-12.3-21.7-17.5-9.2-6.4-19-12-28.8-17.7-17-9.6-33.9-19.4-51.3-28.4-34.9-17.9-70-35.6-105.2-52.7-37.2-18-74.7-35.3-112-53-4.2-1.9-8.2-4-14.4-7 5.2-2.2 8.4-3.8 11.7-4.9 37.2-12.5 74.3-25.6 111.7-37.3 39.3-12.4 79-23.4 118.6-35 3.6-1 7.2-1.8 10.5-3.2 1.2-.4 1.8-2.3 2.6-3.6z" clip-path="url(#a)" transform="matrix(.01725 0 0 -.01725 10.384 11.31)" style="stroke:#fff;stroke-width:53.1453;stroke-dasharray:none;stroke-opacity:1"/>
</svg>
